# xmcd CD database file
#
# Track frame offsets:
#	150
#	20787
#	38320
#	54287
#	71357
#	96387
#	115915
#	130377
#	156022
#	173407
#
# Disc length: 2725 seconds
#
# Revision: 0
# Processed by: cddbd v1.5PL3 Copyright (c) Steve Scherf et al.
# Submitted via: CDex 1.50
#
DISCID=770aa30a
DTITLE=Cute Beat Club Band - NOT　CHECKERS　円高差益還元ライブ
DYEAR=1987
DGENRE=JPop
TTITLE0=ちょっとGive me a break! （STUDIO VERSION）
TTITLE1=ちょっとGive me a break! （LIVE VERSION）
TTITLE2=TOKYO CONNECTION
TTITLE3=WANDERER
TTITLE4=MELLOW TONIGHT
TTITLE5=NET GENERATION （英語VERSION）
TTITLE6=ウィークエンドアバンチュール
TTITLE7=７つの海の地球儀 （LIVE VERSION）
TTITLE8=７つの海の地球儀 （STUDIO VERSION）
TTITLE9=クレイジー・パラダイスへようこそ
EXTD=YEAR: 1987
EXTT0=
EXTT1=
EXTT2=
EXTT3=
EXTT4=
EXTT5=
EXTT6=
EXTT7=
EXTT8=
EXTT9=
PLAYORDER=
